<svg xmlns="http://www.w3.org/2000/svg" width="432.055" height="64.892" viewBox="0 0 432.055 64.892"><g transform="translate(0 -0.021)"><path d="M161.82,22.13,163,21a7.19,7.19,0,0,0,6,2.93c3.3,0,4.66-2.21,4.66-4,0-4.08-9.23-3.36-9.23-8.51,0-2.8,2.71-5.15,6.23-5.15a7.59,7.59,0,0,1,6.38,2.88l-1.2,1.11a6.24,6.24,0,0,0-5.32-2.55c-2.46,0-4.37,1.72-4.37,3.55,0,3.71,9.25,3.21,9.25,8.47,0,2.77-2.24,5.66-6.54,5.66C165.72,25.38,163,24,161.82,22.13Z" fill="#231815" stroke="#231815" stroke-miterlimit="10" stroke-width="0.73"/><path d="M197.5,23.16a2.8,2.8,0,0,1,.11-.72l2.1-9.51H197.5l.28-1.27H200L200.8,8h1.46l-.8,3.66h2.72l-.31,1.27h-2.71l-2,9.29a2.87,2.87,0,0,0-.06.58c0,.8.45,1.27,1.36,1.27a2.52,2.52,0,0,0,1.41-.5l.28,1.17a3.24,3.24,0,0,1-1.91.64C198.52,25.38,197.5,24.68,197.5,23.16Z" fill="#231815" stroke="#231815" stroke-miterlimit="10" stroke-width="0.73"/><path d="M223.66,25l3-13.38h1.44l-.5,2.16a6,6,0,0,1,5.1-2.44l-.36,1.55a6.721,6.721,0,0,0-1-.08,5.47,5.47,0,0,0-4.07,2.44L225.1,25Z" fill="#231815" stroke="#231815" stroke-miterlimit="10" stroke-width="0.73"/><path d="M264.08,13.93l.47-2.27H266l-3,13.38h-1.46l.47-2a5.8,5.8,0,0,1-4.6,2.36c-3.08,0-5.24-2.05-5.24-5.49,0-4.52,2.8-8.56,7-8.56a5.49,5.49,0,0,1,4.91,2.58ZM253.8,19.61c0,2.75,1.61,4.46,4.05,4.46a5.73,5.73,0,0,0,4.54-2.57l1.41-6.43a4.83,4.83,0,0,0-4.43-2.44C256,12.63,253.8,16.09,253.8,19.61Z" fill="#231815" stroke="#231815" stroke-miterlimit="10" stroke-width="0.73"/><path d="M295.86,25l2-9.09a4.241,4.241,0,0,0,.17-1c0-1.67-1.27-2.36-3-2.36A6.89,6.89,0,0,0,290.51,15l-2.24,10h-1.44l3-13.38h1.44l-.44,2a7.38,7.38,0,0,1,4.82-2.35c2.27,0,3.91,1.08,3.91,3.27a6.08,6.08,0,0,1-.17,1.13L297.3,25Z" fill="#231815" stroke="#231815" stroke-miterlimit="10" stroke-width="0.73"/><path d="M333.42,13.93,335,6.56h1.47L332.4,25h-1.47l.47-2a5.79,5.79,0,0,1-4.6,2.36c-3.07,0-5.23-2.05-5.23-5.49,0-4.52,2.79-8.56,7-8.56a5.48,5.48,0,0,1,4.85,2.62Zm-10.27,5.68c0,2.75,1.6,4.46,4,4.46a5.73,5.73,0,0,0,4.55-2.57l1.41-6.43a4.84,4.84,0,0,0-4.43-2.44c-3.32,0-5.53,3.46-5.53,6.98Z" fill="#231815" stroke="#231815" stroke-miterlimit="10" stroke-width="0.73"/><path d="M356.17,25l3-13.38h1.45l-3,13.38Zm3.24-16.45a1.27,1.27,0,0,1,1.25-1.22,1,1,0,0,1,1,1,1.27,1.27,0,0,1-1.27,1.22,1,1,0,0,1-.98-.96Z" fill="#231815" stroke="#231815" stroke-miterlimit="10" stroke-width="0.73"/><path d="M390.42,25l2-9.09a4.241,4.241,0,0,0,.17-1c0-1.67-1.27-2.36-3-2.36A6.87,6.87,0,0,0,385.07,15l-2.24,10h-1.44l3-13.38h1.44l-.44,2a7.38,7.38,0,0,1,4.82-2.35c2.27,0,3.91,1.08,3.91,3.27a6.085,6.085,0,0,1-.17,1.13L391.86,25Z" fill="#231815" stroke="#231815" stroke-miterlimit="10" stroke-width="0.73"/><path d="M415,28.2l1-1.08c.95,1.44,2.58,2.05,4.74,2.05s4.13-1.13,4.77-4.24l.41-2a6,6,0,0,1-4.73,2.35c-2.83,0-5.07-1.8-5.07-5.56,0-4.3,2.68-8.37,6.95-8.37a6.13,6.13,0,0,1,4.85,2.6l.53-2.27h1.46l-3,13.27c-.91,4.07-3.33,5.54-6.21,5.54C418.26,30.47,416.35,30,415,28.2Zm11.25-6.62,1.47-6.48a5.22,5.22,0,0,0-4.57-2.47c-3.39,0-5.46,3.55-5.46,6.87,0,2.8,1.58,4.46,4,4.46a6.29,6.29,0,0,0,4.55-2.38Z" fill="#231815" stroke="#231815" stroke-miterlimit="10" stroke-width="0.73"/><path d="M175.42,58.27l-.83-4.54h-9.78L162,58.27h-1.91l11.64-18.48h2l3.49,18.48Zm-3-16.79-6.76,10.81h8.76Z" fill="#231815" stroke="#231815" stroke-miterlimit="10" stroke-width="0.73"/><path d="M298.26,58.27l3-13.38h1.44l-3,13.38Zm3.24-16.46a1.27,1.27,0,0,1,1.24-1.22,1,1,0,0,1,1,1,1.27,1.27,0,0,1-1.28,1.22,1,1,0,0,1-.96-1Z" fill="#231815" stroke="#231815" stroke-miterlimit="10" stroke-width="0.73"/><path d="M422.62,58.27l3-13.38H427l-.5,2.16a6,6,0,0,1,5.1-2.44l-.36,1.55a5.54,5.54,0,0,0-1-.08,5.47,5.47,0,0,0-4.07,2.44l-2.16,9.75Z" fill="#231815" stroke="#231815" stroke-miterlimit="10" stroke-width="0.73"/><path d="M137.74,60c-.48-2-3-2.16-4.57-2.73a8.86,8.86,0,0,1-4-3.43c-.5-.7-1-1.43-1.44-2.15l-.65-1a3.52,3.52,0,0,1-.54-.76,10.309,10.309,0,0,1,.21,2.07,14.832,14.832,0,0,1,0,2c-.35,3.19-4.66,4.32-7.31,4.33h-.31a18.79,18.79,0,0,1-14.38-7.44c-3.49-4.85-4.29-11-4.36-16.85A50.47,50.47,0,0,1,104.54,13c.34-.78.71-1.55,1.1-2.31.91-1.76,2-3.82,3.23-5.86a2.47,2.47,0,0,0,.45-1.9C108.81,1,105.19.26,103.55.08A20.73,20.73,0,0,0,95.7,1c-1.93.54-3.86,1.11-5.79,1.67C85.53,4,81.15,5.23,76.74,6.36a52.411,52.411,0,0,1-9.47,1.55H66.08v.83l.91.06a46.33,46.33,0,0,0,9.7-.57c6.46-1,12.73-3,19.2-4,.46-.06,2.23-.38,2.23.45a9.18,9.18,0,0,1-.46,1.84c-.15.65-.29,1.3-.41,2a102.68,102.68,0,0,0-1.73,29,36.18,36.18,0,0,0,2.4,10.94,24.85,24.85,0,0,0,9.83,10.82c6.13,3.85,13.54,5.26,20.68,5.59,3,.14,9.62.2,9.42-4.22A4.861,4.861,0,0,0,137.74,60Z" fill="#231815"/><path d="M91.59,39.87a65.32,65.32,0,0,0-7-7c.17-.2.34-.41.52-.61a34.88,34.88,0,0,0,5.47-8c1.19-2.48,1.18-5.39-1.61-6.73-.14-.07-.29-.12-.44-.18a13.58,13.58,0,0,1-4.57-2.46,15.889,15.889,0,0,1-1.54-1.53l-.19-.23-.72.48a2.6,2.6,0,0,0,.26.45,16.851,16.851,0,0,1,1.45,2.63,4.91,4.91,0,0,1,.29,2.05,10.53,10.53,0,0,1-.26,1.76c-.72,3.19-2.43,5.84-4.24,8.64l-.24.38-.87-.38a37.8,37.8,0,0,0-5.45-2,31.5,31.5,0,0,0-5.47-.79,73.841,73.841,0,0,0,1.2-7.68c.28-2.46.25-5.21,1.08-7.56l.29-.53h-.6a27.18,27.18,0,0,1-4.85-.64,13.77,13.77,0,0,0-3.14-.31,12.3,12.3,0,0,0-1.33.1,7,7,0,0,1,1.37.61,3.2,3.2,0,0,1,1.19,2.31,42.2,42.2,0,0,1-.43,11,77.612,77.612,0,0,1-2,10,46.1,46.1,0,0,1-3,8.39,20.449,20.449,0,0,1-1.23,2.19c-.17.27-.3.57-.5.87l-.06.09-.12-.1a9.38,9.38,0,0,0-8.43-2.26C41.14,44,36,46.09,31,47.89c-5.69,2-11.35,4.36-17.17,6A66.81,66.81,0,0,1,5,55.57a36.23,36.23,0,0,0-5,1l.2.89.39-.08c2.24-.47,4.46.45,6.58,1.07a16.56,16.56,0,0,0,6.76.86h.21c2.29-.33,4.47-1.63,6.52-2.63,2.26-1.09,4.49-2.23,6.77-3.3,1.27-.59,2.55-1.16,3.85-1.68a51,51,0,0,1,14.24-3.62A39.411,39.411,0,0,1,53,48.4c-.15.17-.28.35-.42.52a9.4,9.4,0,0,1-.91,1A64.27,64.27,0,0,1,40.34,59l.37.73.77-.34A59,59,0,0,0,47,56.58a42.15,42.15,0,0,0,5.86-3.83q.51-.41,1-.84a36.27,36.27,0,0,0,8-10.16,59.25,59.25,0,0,0,4.62-13.22c.12-.5.22-1,.34-1.49a35.84,35.84,0,0,1,7.87,3.78,18.531,18.531,0,0,1,2.19,1.56l-.92,1.45C72.83,38.46,70,43.45,66.83,48.1a96.74,96.74,0,0,1-8.44,10.72,4.581,4.581,0,0,0-.35.42l-.38.47.71.57.24-.22c7.82-7.33,15.91-14.91,22.84-23.58l1.09,1.34c.36.51,2,3.47,2.31,4,1.73,3,2.83,4.85,4.07,6,1.08,1,3.28,1.45,4.38.37s1.08-2.93.64-4.3A13.38,13.38,0,0,0,91.59,39.87Z" fill="#231815"/><path d="M5.38,20.87A10.7,10.7,0,0,1,8,20.79a9.9,9.9,0,0,1,2.84.73,14,14,0,0,1,1.58.83l.11.07a10.67,10.67,0,0,0,2.7,1.35,13.37,13.37,0,0,0,3.51.48,25.6,25.6,0,0,0,5.49-.91c6.67-1.44,14.1-3.4,21.13-5.14,2.49-.61,5-1.13,7.48-1.82,1.22-.33,2.43-.68,3.66-1,.51-.14,1-.28,1.51-.44a1.23,1.23,0,0,0,.73-.5.84.84,0,0,0-.28-1,5.56,5.56,0,0,0-1.26-.76c-.55-.3-1.1-.58-1.66-.85a9.69,9.69,0,0,0-5.92-1.26h-.18a16.49,16.49,0,0,0-1.92.42c-.89.28-1.78.58-2.66.87-.71.24-1.41.48-2.12.7a2.06,2.06,0,0,0-.27.08.88.88,0,0,1,0-.33,2.11,2.11,0,0,1,.18-.57l.21-.4c.4-.74.82-1.52,1.26-2.24a6.78,6.78,0,0,0,.19-6C43.67,1.71,42.26-.18,40.42.23a5.43,5.43,0,0,0-2.74,1.6A5,5,0,0,1,33.2,3.4a10.85,10.85,0,0,1-2.29-.73,20.571,20.571,0,0,1-2.18-1L26.8.62A2,2,0,0,1,26.39.4L29,2.63A16.81,16.81,0,0,0,34.09,6,7.55,7.55,0,0,1,39,12.65c.1.86-.93,1.24-1.58,1.46-5.87,2-11.88,3.47-17.81,5.25a18.58,18.58,0,0,1-7.9.77c-1-.14-2.07-.25-3.11-.33a11.58,11.58,0,0,0-3.8.26L5,21Z" fill="#231815"/><path d="M42.83,40l-.59,1.35,1.34-1A2.69,2.69,0,0,0,44,40l1.15-1.16a57.15,57.15,0,0,0,9-12.26c.7-1.21-.51-2.38-1.39-3.07a14.8,14.8,0,0,0-4-2.33c-1-.34-3.61-1.13-3.61.65,0,2.37.17,4.73.06,7.1a34.39,34.39,0,0,1-.94,6.76A27,27,0,0,1,42.83,40Z" fill="#231815"/><path d="M33.48,30.87l-.74.53A19.8,19.8,0,0,1,30.36,33a3.8,3.8,0,0,1-4.87-.17A14.389,14.389,0,0,1,24,31.45l-.62-.64-1.21-1.19.93,2.48c1.1,2.9,2.1,5.9,3.26,8.79a6.26,6.26,0,0,0,1.25,1.74,1.29,1.29,0,0,0,.93.43h.17a1.39,1.39,0,0,0,1-.8,46.63,46.63,0,0,1,2.68-4.57c1-1.62,2-3.23,3.14-4.78a1.58,1.58,0,0,0-.12-2.1,1.54,1.54,0,0,0-1.93.06Z" fill="#231815"/></g></svg>