<svg id="logo" xmlns="http://www.w3.org/2000/svg" width="200" height="200" viewBox="0 0 200 200">
  <rect id="Rectangle_1" data-name="Rectangle 1" width="200" height="200" fill="none"/>
  <g id="Group_3" data-name="Group 3" transform="translate(-146.511 -129.126)">
    <path id="Path_13" data-name="Path 13" d="M170.045,87.039c-.7-2.9-4.352-3.134-6.63-3.961a12.854,12.854,0,0,1-5.8-4.976c-.725-1.016-1.451-2.075-2.089-3.119l-.943-1.451a5.107,5.107,0,0,1-.783-1.1,14.956,14.956,0,0,1,.3,3,21.516,21.516,0,0,1,0,2.9c-.508,4.628-6.761,6.267-10.605,6.282h-.45a27.261,27.261,0,0,1-20.863-10.794c-5.063-7.036-6.224-15.959-6.326-24.446a73.222,73.222,0,0,1,6.021-30.525c.493-1.132,1.03-2.249,1.6-3.351,1.32-2.553,2.9-5.542,4.686-8.5a3.584,3.584,0,0,0,.653-2.757c-.74-2.8-5.992-3.874-8.371-4.135a30.075,30.075,0,0,0-11.389,1.335c-2.8.783-5.6,1.61-8.4,2.423C94.3,5.794,87.944,7.578,81.546,9.217a76.039,76.039,0,0,1-13.739,2.249H66.08v1.2l1.32.087a67.215,67.215,0,0,0,14.073-.827c9.372-1.451,18.469-4.352,27.855-5.8.667-.087,3.235-.551,3.235.653A13.319,13.319,0,0,1,111.9,9.45c-.218.943-.421,1.886-.595,2.9a148.969,148.969,0,0,0-2.51,42.073A52.491,52.491,0,0,0,112.274,70.3a36.053,36.053,0,0,0,14.261,15.7c8.893,5.586,19.644,7.631,30,8.11,4.352.2,13.957.29,13.667-6.122A7.058,7.058,0,0,0,170.045,87.039Z" transform="translate(176.3 182.032)"/>
    <path id="Path_14" data-name="Path 14" d="M132.879,53.5a94.766,94.766,0,0,0-10.156-10.156c.247-.29.493-.595.754-.885a50.6,50.6,0,0,0,7.936-11.606c1.726-3.6,1.712-7.82-2.336-9.764-.2-.1-.421-.174-.638-.261a19.7,19.7,0,0,1-6.63-3.569,23.054,23.054,0,0,1-2.234-2.22l-.276-.334-1.045.7a3.772,3.772,0,0,0,.377.653,24.448,24.448,0,0,1,2.1,3.816,7.123,7.123,0,0,1,.421,2.974,15.278,15.278,0,0,1-.377,2.553c-1.045,4.628-3.525,8.473-6.151,12.535l-.348.551-1.262-.551a54.843,54.843,0,0,0-7.907-2.9,45.7,45.7,0,0,0-7.936-1.146,107.118,107.118,0,0,0,1.741-11.142c.406-3.569.363-7.559,1.567-10.968l.421-.769h-.87A39.433,39.433,0,0,1,93,10.081a19.978,19.978,0,0,0-4.556-.45,17.846,17.846,0,0,0-1.93.145,10.156,10.156,0,0,1,1.988.885,4.643,4.643,0,0,1,1.726,3.351A61.224,61.224,0,0,1,89.6,29.971a112.6,112.6,0,0,1-2.9,14.508,66.883,66.883,0,0,1-4.352,12.172,29.669,29.669,0,0,1-1.784,3.177c-.247.392-.435.827-.725,1.262l-.087.131-.174-.145A13.609,13.609,0,0,0,67.346,57.8c-7.66,1.7-15.117,4.73-22.371,7.341-8.255,2.9-16.467,6.326-24.91,8.7A96.929,96.929,0,0,1,7.254,76.281,52.563,52.563,0,0,0,0,77.732l.29,1.291.566-.116c3.25-.682,6.471.653,9.546,1.552a24.025,24.025,0,0,0,9.807,1.248h.3c3.322-.479,6.485-2.365,9.459-3.816,3.279-1.581,6.514-3.235,9.822-4.788,1.843-.856,3.7-1.683,5.586-2.437a73.991,73.991,0,0,1,20.659-5.252,57.178,57.178,0,0,1,10.852.464c-.218.247-.406.508-.609.754a13.637,13.637,0,0,1-1.32,1.451A93.243,93.243,0,0,1,58.526,81.257l.537,1.059,1.117-.493a85.6,85.6,0,0,0,8.008-4.077,61.152,61.152,0,0,0,8.5-5.557q.74-.595,1.451-1.219a52.621,52.621,0,0,0,11.606-14.74,85.96,85.96,0,0,0,6.7-19.18c.174-.725.319-1.451.493-2.162a52,52,0,0,1,11.418,5.484,26.884,26.884,0,0,1,3.177,2.263l-1.335,2.1c-4.541,6.717-8.647,13.957-13.246,20.7A140.353,140.353,0,0,1,84.713,81a6.648,6.648,0,0,0-.508.609l-.551.682,1.03.827.348-.319c11.345-10.634,23.082-21.632,33.136-34.21l1.581,1.944c.522.74,2.9,5.034,3.351,5.8,2.51,4.352,4.106,7.036,5.9,8.7,1.567,1.451,4.759,2.1,6.355.537s1.567-4.251.928-6.238A19.412,19.412,0,0,0,132.879,53.5Z" transform="translate(146.511 186.363)"/>
    <path id="Path_15" data-name="Path 15" d="M5.641,30.2a15.524,15.524,0,0,1,3.8-.116,14.363,14.363,0,0,1,4.12,1.059,20.312,20.312,0,0,1,2.292,1.2l.16.1a15.48,15.48,0,0,0,3.917,1.959,19.4,19.4,0,0,0,5.092.7,37.141,37.141,0,0,0,7.965-1.32c9.677-2.089,20.456-4.933,30.656-7.457,3.613-.885,7.254-1.639,10.852-2.64,1.77-.479,3.525-.987,5.31-1.451.74-.2,1.451-.406,2.191-.638a1.784,1.784,0,0,0,1.059-.725,1.219,1.219,0,0,0-.406-1.451,8.066,8.066,0,0,0-1.828-1.1c-.8-.435-1.6-.841-2.408-1.233a14.058,14.058,0,0,0-8.589-1.828h-.261a23.923,23.923,0,0,0-2.786.609c-1.291.406-2.582.841-3.859,1.262-1.03.348-2.046.7-3.076,1.016a2.99,2.99,0,0,0-.392.116,1.277,1.277,0,0,1,0-.479,3.061,3.061,0,0,1,.261-.827l.3-.58c.58-1.074,1.19-2.205,1.828-3.25a9.837,9.837,0,0,0,.276-8.7C61.193,2.4,59.147-.339,56.478.256A7.878,7.878,0,0,0,52.5,2.577,7.254,7.254,0,0,1,46,4.855,15.741,15.741,0,0,1,42.681,3.8a29.846,29.846,0,0,1-3.163-1.451L36.718.822A2.9,2.9,0,0,1,36.123.5L39.91,3.738a24.388,24.388,0,0,0,7.385,4.889,10.954,10.954,0,0,1,7.123,9.648c.145,1.248-1.349,1.8-2.292,2.118-8.516,2.9-17.236,5.034-25.839,7.617a26.956,26.956,0,0,1-11.461,1.117c-1.451-.2-3-.363-4.512-.479a16.8,16.8,0,0,0-5.513.377l.29,1.364Z" transform="translate(148.675 182.1)"/>
    <path id="Path_16" data-name="Path 16" d="M43.1,48.7l-.856,1.959L44.184,49.2a3.9,3.9,0,0,0,.609-.508l1.668-1.683A82.914,82.914,0,0,0,59.519,29.227c1.016-1.755-.74-3.453-2.017-4.454a21.472,21.472,0,0,0-5.8-3.38c-1.451-.493-5.237-1.639-5.237.943,0,3.438.247,6.862.087,10.3a49.892,49.892,0,0,1-1.364,9.807A39.17,39.17,0,0,1,43.1,48.7Z" transform="translate(165.553 191.358)"/>
    <path id="Path_17" data-name="Path 17" d="M38.579,31.434l-1.074.769a28.728,28.728,0,0,1-3.453,2.321,5.513,5.513,0,0,1-7.065-.247,20.875,20.875,0,0,1-2.162-2l-.9-.929L22.17,29.62l1.349,3.6c1.6,4.207,3.047,8.56,4.73,12.753a9.082,9.082,0,0,0,1.814,2.524,1.872,1.872,0,0,0,1.349.624h.247a2.017,2.017,0,0,0,1.451-1.161A67.654,67.654,0,0,1,37,41.328c1.451-2.35,2.9-4.686,4.556-6.935a2.292,2.292,0,0,0-.174-3.047A2.234,2.234,0,0,0,38.579,31.434Z" transform="translate(156.506 195.375)"/>
  </g>
</svg>
